v 4.65 0.5 0.002 0.8 0.8 0.8
v 3.65 0.5 0.002 0.8 0.8 0.8
v 4.65 -0.5 0.002 0.8 0.8 0.8
v 3.65 -0.5 0.002 0.8 0.8 0.8
v 3 3 0 0.8 0.8 0.8
v 3 3 0.6 0.8 0.8 0.8
v 3 -3 0 0.8 0.8 0.8
v 3 -3 0.6 0.8 0.8 0.8
v -3 3 0 0.8 0.8 0.8
v -3 3 0.6 0.8 0.8 0.8
v -3 -3 0 0.8 0.8 0.8
v -3 -3 0.6 0.8 0.8 0.8
v 1.5 1.5 0.6 0.8 0.8 0.8
v 1.5 1.5 0.9 0.8 0.8 0.8
v 1.5 -1.5 0.6 0.8 0.8 0.8
v 1.5 -1.5 0.9 0.8 0.8 0.8
v -1.5 1.5 0.6 0.8 0.8 0.8
v -1.5 1.5 0.9 0.8 0.8 0.8
v -1.5 -1.5 0.6 0.8 0.8 0.8
v -1.5 -1.5 0.9 0.8 0.8 0.8
v -2.25 0.5 0.602 0.8 0.8 0.8
v -3 0.5 0.602 0.8 0.8 0.8
v -2.25 -0.5 0.602 0.8 0.8 0.8
v -3 -0.5 0.602 0.8 0.8 0.8
v 3 0.5 0.602 0.8 0.8 0.8
v 2.25 0.5 0.602 0.8 0.8 0.8
v 3 -0.5 0.602 0.8 0.8 0.8
v 2.25 -0.5 0.602 0.8 0.8 0.8
f 1 2 4
f 1 4 3
f 5 6 8
f 5 8 7
f 7 8 12
f 7 12 11
f 11 12 10
f 11 10 9
f 9 10 6
f 9 6 5
f 7 11 9
f 7 9 5
f 12 8 6
f 12 6 10
f 13 14 16
f 13 16 15
f 15 16 20
f 15 20 19
f 19 20 18
f 19 18 17
f 17 18 14
f 17 14 13
f 15 19 17
f 15 17 13
f 20 16 14
f 20 14 18
f 21 22 24
f 21 24 23
f 25 26 28
f 25 28 27
