v 4.26225 0.075002 0 0.14 0.05 0.05
v 4.225 0.112248 0 0.14 0.05 0.05
v 4.24546 0.095459 0 0.14 0.05 0.05
v 4.27472 0.051662 0 0.14 0.05 0.05
v 4.28241 0.026337 0 0.14 0.05 0.05
v 4.20166 0.124724 0 0.14 0.05 0.05
v 4.17634 0.132406 0 0.14 0.05 0.05
v 4.26225 0.075002 0.5 0.14 0.05 0.05
v 4.225 0.112248 0.5 0.14 0.05 0.05
v 4.24546 0.095459 0.5 0.14 0.05 0.05
v 4.27472 0.051662 0.5 0.14 0.05 0.05
v 4.28241 0.026337 0.5 0.14 0.05 0.05
v 4.21914 0.046195 0.461732 0.14 0.05 0.05
v 4.23155 0.03378 0.480491 0.14 0.05 0.05
v 4.23315 0.034441 0.5 0.14 0.05 0.05
v 4.22339 0.049041 0.480491 0.14 0.05 0.05
v 4.22483 0.050001 0.5 0.14 0.05 0.05
v 4.23657 0.017221 0.480491 0.14 0.05 0.05
v 4.23827 0.017558 0.5 0.14 0.05 0.05
v 4.22682 0.03182 0.461732 0.14 0.05 0.05
v 4.21914 0.028637 0.444443 0.14 0.05 0.05
v 4.23155 0.016222 0.461732 0.14 0.05 0.05
v 4.22339 0.014599 0.444443 0.14 0.05 0.05
v 4.20166 0.124724 0.5 0.14 0.05 0.05
v 4.1962 0.069136 0.461732 0.14 0.05 0.05
v 4.19904 0.073394 0.480491 0.14 0.05 0.05
v 4.2 0.074832 0.5 0.14 0.05 0.05
v 4.18378 0.081551 0.480491 0.14 0.05 0.05
v 4.18444 0.083149 0.5 0.14 0.05 0.05
v 4.17634 0.132406 0.5 0.14 0.05 0.05
v 4.16722 0.086575 0.480491 0.14 0.05 0.05
v 4.16756 0.088271 0.5 0.14 0.05 0.05
v 4.18182 0.07682 0.461732 0.14 0.05 0.05
v 4.17864 0.069136 0.444443 0.14 0.05 0.05
v 4.15 0.088271 0.480491 0.14 0.05 0.05
v 4.15 0.09 0.5 0.14 0.05 0.05
v 4.16622 0.081551 0.461732 0.14 0.05 0.05
v 4.1646 0.073394 0.444443 0.14 0.05 0.05
v 4.15 0.074832 0.444443 0.14 0.05 0.05
v 4.20291 0.035356 0.429289 0.14 0.05 0.05
v 4.18536 0.052914 0.429289 0.14 0.05 0.05
v 4.195 0.045 0.429289 0.14 0.05 0.05
v 4.18536 0.035356 0.416853 0.14 0.05 0.05
v 4.20291 0.052914 0.444443 0.14 0.05 0.05
v 4.2088 0.058795 0.461732 0.14 0.05 0.05
v 4.21242 0.062417 0.480491 0.14 0.05 0.05
v 4.21364 0.06364 0.5 0.14 0.05 0.05
v 4.21222 0.041575 0.444443 0.14 0.05 0.05
v 4.19157 0.062221 0.444443 0.14 0.05 0.05
v 4.2088 0.024354 0.429289 0.14 0.05 0.05
v 4.21242 0.012415 0.429289 0.14 0.05 0.05
v 4.1962 0.019135 0.416853 0.14 0.05 0.05
v 4.19157 0.027779 0.416853 0.14 0.05 0.05
v 4.19904 0.009755 0.416853 0.14 0.05 0.05
v 4.18378 0.006719 0.407612 0.14 0.05 0.05
v 4.17435 0.058795 0.429289 0.14 0.05 0.05
v 4.17778 0.041575 0.416853 0.14 0.05 0.05
v 4.16913 0.046195 0.416853 0.14 0.05 0.05
v 4.16242 0.062417 0.429289 0.14 0.05 0.05
v 4.15 0.06364 0.429289 0.14 0.05 0.05
v 4.15975 0.049041 0.416853 0.14 0.05 0.05
v 4.15 0.050001 0.416853 0.14 0.05 0.05
v 4.15672 0.03378 0.407612 0.14 0.05 0.05
v 4.15 0.034441 0.407612 0.14 0.05 0.05
v 4.17864 0.019135 0.407612 0.14 0.05 0.05
v 4.16913 0.028637 0.407612 0.14 0.05 0.05
v 4.17435 0.024354 0.407612 0.14 0.05 0.05
v 4.16722 0.003425 0.401921 0.14 0.05 0.05
v 4.18182 0.01318 0.407612 0.14 0.05 0.05
v 4.15343 0.017221 0.401921 0.14 0.05 0.05
v 4.15 0.017558 0.401921 0.14 0.05 0.05
v 4.16318 0.03182 0.407612 0.14 0.05 0.05
v 4.1646 0.009755 0.401921 0.14 0.05 0.05
v 4.15975 0.014599 0.401921 0.14 0.05 0.05
v 4.16242 0.012415 0.401921 0.14 0.05 0.05
v 4.16622 0.006719 0.401921 0.14 0.05 0.05
v 4.15672 0.016222 0.401921 0.14 0.05 0.05
v 4.285 0 0 0.14 0.05 0.05
v 4.28241 -0.026337 0 0.14 0.05 0.05
v 4.27472 -0.051662 0 0.14 0.05 0.05
v 4.26225 -0.075002 0 0.14 0.05 0.05
v 4.24546 -0.095459 0 0.14 0.05 0.05
v 4.225 -0.112248 0 0.14 0.05 0.05
v 4.20166 -0.124724 0 0.14 0.05 0.05
v 4.17634 -0.132406 0 0.14 0.05 0.05
v 4.285 0 0.5 0.14 0.05 0.05
v 4.28241 -0.026337 0.5 0.14 0.05 0.05
v 4.27472 -0.051662 0.5 0.14 0.05 0.05
v 4.23827 -0 0.480491 0.14 0.05 0.05
v 4.24 -0 0.5 0.14 0.05 0.05
v 4.23657 -0.017221 0.480491 0.14 0.05 0.05
v 4.23827 -0.017558 0.5 0.14 0.05 0.05
v 4.23315 -0 0.461732 0.14 0.05 0.05
v 4.23155 -0.016222 0.461732 0.14 0.05 0.05
v 4.22483 -0 0.444443 0.14 0.05 0.05
v 4.22339 -0.014599 0.444443 0.14 0.05 0.05
v 4.22682 -0.03182 0.461732 0.14 0.05 0.05
v 4.21914 -0.028637 0.444443 0.14 0.05 0.05
v 4.21914 -0.046195 0.461732 0.14 0.05 0.05
v 4.23155 -0.03378 0.480491 0.14 0.05 0.05
v 4.23315 -0.034441 0.5 0.14 0.05 0.05
v 4.22339 -0.049041 0.480491 0.14 0.05 0.05
v 4.22483 -0.050001 0.5 0.14 0.05 0.05
v 4.26225 -0.075002 0.5 0.14 0.05 0.05
v 4.24546 -0.095459 0.5 0.14 0.05 0.05
v 4.225 -0.112248 0.5 0.14 0.05 0.05
v 4.21364 -0 0.429289 0.14 0.05 0.05
v 4.21242 -0.012415 0.429289 0.14 0.05 0.05
v 4.2088 -0.024354 0.429289 0.14 0.05 0.05
v 4.2 -0 0.416853 0.14 0.05 0.05
v 4.19904 -0.009755 0.416853 0.14 0.05 0.05
v 4.18444 -0 0.407612 0.14 0.05 0.05
v 4.18378 -0.006719 0.407612 0.14 0.05 0.05
v 4.1962 -0.019135 0.416853 0.14 0.05 0.05
v 4.19157 -0.027779 0.416853 0.14 0.05 0.05
v 4.20291 -0.035356 0.429289 0.14 0.05 0.05
v 4.195 -0.045 0.429289 0.14 0.05 0.05
v 4.18536 -0.035356 0.416853 0.14 0.05 0.05
v 4.18536 -0.052914 0.429289 0.14 0.05 0.05
v 4.21222 -0.041575 0.444443 0.14 0.05 0.05
v 4.20291 -0.052914 0.444443 0.14 0.05 0.05
v 4.2088 -0.058795 0.461732 0.14 0.05 0.05
v 4.21242 -0.062417 0.480491 0.14 0.05 0.05
v 4.21364 -0.06364 0.5 0.14 0.05 0.05
v 4.19157 -0.062221 0.444443 0.14 0.05 0.05
v 4.16756 -0 0.401921 0.14 0.05 0.05
v 4.16722 -0.003425 0.401921 0.14 0.05 0.05
v 4.18182 -0.01318 0.407612 0.14 0.05 0.05
v 4.17864 -0.019135 0.407612 0.14 0.05 0.05
v 4.17435 -0.024354 0.407612 0.14 0.05 0.05
v 4.16913 -0.028637 0.407612 0.14 0.05 0.05
v 4.16622 -0.006719 0.401921 0.14 0.05 0.05
v 4.1646 -0.009755 0.401921 0.14 0.05 0.05
v 4.16242 -0.012415 0.401921 0.14 0.05 0.05
v 4.15975 -0.014599 0.401921 0.14 0.05 0.05
v 4.15672 -0.016222 0.401921 0.14 0.05 0.05
v 4.15343 -0.017221 0.401921 0.14 0.05 0.05
v 4.16318 -0.03182 0.407612 0.14 0.05 0.05
v 4.17778 -0.041575 0.416853 0.14 0.05 0.05
v 4.16913 -0.046195 0.416853 0.14 0.05 0.05
v 4.17435 -0.058795 0.429289 0.14 0.05 0.05
v 4.15975 -0.049041 0.416853 0.14 0.05 0.05
v 4.15672 -0.03378 0.407612 0.14 0.05 0.05
v 4.16242 -0.062417 0.429289 0.14 0.05 0.05
v 4.1962 -0.069136 0.461732 0.14 0.05 0.05
v 4.19904 -0.073394 0.480491 0.14 0.05 0.05
v 4.2 -0.074832 0.5 0.14 0.05 0.05
v 4.18378 -0.081551 0.480491 0.14 0.05 0.05
v 4.18444 -0.083149 0.5 0.14 0.05 0.05
v 4.20166 -0.124724 0.5 0.14 0.05 0.05
v 4.17864 -0.069136 0.444443 0.14 0.05 0.05
v 4.18182 -0.07682 0.461732 0.14 0.05 0.05
v 4.16722 -0.086575 0.480491 0.14 0.05 0.05
v 4.16756 -0.088271 0.5 0.14 0.05 0.05
v 4.1646 -0.073394 0.444443 0.14 0.05 0.05
v 4.16622 -0.081551 0.461732 0.14 0.05 0.05
v 4.17634 -0.132406 0.5 0.14 0.05 0.05
v 4.15 0.135 0 0.14 0.05 0.05
v 4.12366 0.132406 0 0.14 0.05 0.05
v 4.09834 0.124724 0 0.14 0.05 0.05
v 4.075 0.112248 0 0.14 0.05 0.05
v 4.05454 0.095459 0 0.14 0.05 0.05
v 4.03775 0.075002 0 0.14 0.05 0.05
v 4.02528 0.051662 0 0.14 0.05 0.05
v 4.01759 0.026337 0 0.14 0.05 0.05
v 4.15 0.135 0.5 0.14 0.05 0.05
v 4.12366 0.132406 0.5 0.14 0.05 0.05
v 4.15 0.083149 0.461732 0.14 0.05 0.05
v 4.13378 0.081551 0.461732 0.14 0.05 0.05
v 4.1354 0.073394 0.444443 0.14 0.05 0.05
v 4.13278 0.086575 0.480491 0.14 0.05 0.05
v 4.13244 0.088271 0.5 0.14 0.05 0.05
v 4.11818 0.07682 0.461732 0.14 0.05 0.05
v 4.12136 0.069136 0.444443 0.14 0.05 0.05
v 4.09834 0.124724 0.5 0.14 0.05 0.05
v 4.10381 0.069136 0.461732 0.14 0.05 0.05
v 4.11622 0.081551 0.480491 0.14 0.05 0.05
v 4.11556 0.083149 0.5 0.14 0.05 0.05
v 4.10096 0.073394 0.480491 0.14 0.05 0.05
v 4.1 0.074832 0.5 0.14 0.05 0.05
v 4.13758 0.062417 0.429289 0.14 0.05 0.05
v 4.14328 0.03378 0.407612 0.14 0.05 0.05
v 4.14025 0.049041 0.416853 0.14 0.05 0.05
v 4.12565 0.058795 0.429289 0.14 0.05 0.05
v 4.13087 0.046195 0.416853 0.14 0.05 0.05
v 4.12222 0.041575 0.416853 0.14 0.05 0.05
v 4.14657 0.017221 0.401921 0.14 0.05 0.05
v 4.13682 0.03182 0.407612 0.14 0.05 0.05
v 4.14328 0.016222 0.401921 0.14 0.05 0.05
v 4.14025 0.014599 0.401921 0.14 0.05 0.05
v 4.13758 0.012415 0.401921 0.14 0.05 0.05
v 4.1354 0.009755 0.401921 0.14 0.05 0.05
v 4.13378 0.006719 0.401921 0.14 0.05 0.05
v 4.13087 0.028637 0.407612 0.14 0.05 0.05
v 4.12565 0.024354 0.407612 0.14 0.05 0.05
v 4.12136 0.019135 0.407612 0.14 0.05 0.05
v 4.13278 0.003425 0.401921 0.14 0.05 0.05
v 4.13244 0 0.401921 0.14 0.05 0.05
v 4.11818 0.01318 0.407612 0.14 0.05 0.05
v 4.11464 0.052914 0.429289 0.14 0.05 0.05
v 4.11464 0.035356 0.416853 0.14 0.05 0.05
v 4.105 0.045 0.429289 0.14 0.05 0.05
v 4.09709 0.035356 0.429289 0.14 0.05 0.05
v 4.10843 0.062221 0.444443 0.14 0.05 0.05
v 4.09709 0.052914 0.444443 0.14 0.05 0.05
v 4.0912 0.058795 0.461732 0.14 0.05 0.05
v 4.08758 0.062417 0.480491 0.14 0.05 0.05
v 4.08636 0.06364 0.5 0.14 0.05 0.05
v 4.08778 0.041575 0.444443 0.14 0.05 0.05
v 4.10843 0.027779 0.416853 0.14 0.05 0.05
v 4.10381 0.019135 0.416853 0.14 0.05 0.05
v 4.11622 0.006719 0.407612 0.14 0.05 0.05
v 4.11556 0 0.407612 0.14 0.05 0.05
v 4.10096 0.009755 0.416853 0.14 0.05 0.05
v 4.1 0 0.416853 0.14 0.05 0.05
v 4.0912 0.024354 0.429289 0.14 0.05 0.05
v 4.08758 0.012415 0.429289 0.14 0.05 0.05
v 4.075 0.112248 0.5 0.14 0.05 0.05
v 4.05454 0.095459 0.5 0.14 0.05 0.05
v 4.03775 0.075002 0.5 0.14 0.05 0.05
v 4.08086 0.046195 0.461732 0.14 0.05 0.05
v 4.07661 0.049041 0.480491 0.14 0.05 0.05
v 4.07517 0.050001 0.5 0.14 0.05 0.05
v 4.06845 0.03378 0.480491 0.14 0.05 0.05
v 4.06685 0.034441 0.5 0.14 0.05 0.05
v 4.08086 0.028637 0.444443 0.14 0.05 0.05
v 4.07318 0.03182 0.461732 0.14 0.05 0.05
v 4.07661 0.014599 0.444443 0.14 0.05 0.05
v 4.07517 0 0.444443 0.14 0.05 0.05
v 4.06845 0.016222 0.461732 0.14 0.05 0.05
v 4.06343 0.017221 0.480491 0.14 0.05 0.05
v 4.06173 0.017558 0.5 0.14 0.05 0.05
v 4.06173 0 0.480491 0.14 0.05 0.05
v 4.06 0 0.5 0.14 0.05 0.05
v 4.02528 0.051662 0.5 0.14 0.05 0.05
v 4.01759 0.026337 0.5 0.14 0.05 0.05
v 4.15 -0.135 0 0.14 0.05 0.05
v 4.12366 -0.132406 0 0.14 0.05 0.05
v 4.09834 -0.124724 0 0.14 0.05 0.05
v 4.015 0 0 0.14 0.05 0.05
v 4.01759 -0.026337 0 0.14 0.05 0.05
v 4.02528 -0.051662 0 0.14 0.05 0.05
v 4.05454 -0.095459 0 0.14 0.05 0.05
v 4.075 -0.112248 0 0.14 0.05 0.05
v 4.03775 -0.075002 0 0.14 0.05 0.05
v 4.15 0 0.4 0.14 0.05 0.05
v 4.14328 -0.016222 0.401921 0.14 0.05 0.05
v 4.13378 -0.006719 0.401921 0.14 0.05 0.05
v 4.13758 -0.012415 0.401921 0.14 0.05 0.05
v 4.14025 -0.014599 0.401921 0.14 0.05 0.05
v 4.1354 -0.009755 0.401921 0.14 0.05 0.05
v 4.15 -0.017558 0.401921 0.14 0.05 0.05
v 4.14657 -0.017221 0.401921 0.14 0.05 0.05
v 4.13682 -0.03182 0.407612 0.14 0.05 0.05
v 4.13278 -0.003425 0.401921 0.14 0.05 0.05
v 4.11818 -0.01318 0.407612 0.14 0.05 0.05
v 4.12565 -0.024354 0.407612 0.14 0.05 0.05
v 4.13087 -0.028637 0.407612 0.14 0.05 0.05
v 4.12136 -0.019135 0.407612 0.14 0.05 0.05
v 4.15 -0.034441 0.407612 0.14 0.05 0.05
v 4.14328 -0.03378 0.407612 0.14 0.05 0.05
v 4.15 -0.050001 0.416853 0.14 0.05 0.05
v 4.14025 -0.049041 0.416853 0.14 0.05 0.05
v 4.15 -0.06364 0.429289 0.14 0.05 0.05
v 4.13758 -0.062417 0.429289 0.14 0.05 0.05
v 4.13087 -0.046195 0.416853 0.14 0.05 0.05
v 4.12222 -0.041575 0.416853 0.14 0.05 0.05
v 4.12565 -0.058795 0.429289 0.14 0.05 0.05
v 4.11622 -0.006719 0.407612 0.14 0.05 0.05
v 4.10096 -0.009755 0.416853 0.14 0.05 0.05
v 4.10843 -0.027779 0.416853 0.14 0.05 0.05
v 4.10381 -0.019135 0.416853 0.14 0.05 0.05
v 4.08636 -0 0.429289 0.14 0.05 0.05
v 4.08758 -0.012415 0.429289 0.14 0.05 0.05
v 4.0912 -0.024354 0.429289 0.14 0.05 0.05
v 4.11464 -0.035356 0.416853 0.14 0.05 0.05
v 4.105 -0.045 0.429289 0.14 0.05 0.05
v 4.11464 -0.052914 0.429289 0.14 0.05 0.05
v 4.09709 -0.035356 0.429289 0.14 0.05 0.05
v 4.10843 -0.062221 0.444443 0.14 0.05 0.05
v 4.08778 -0.041575 0.444443 0.14 0.05 0.05
v 4.09709 -0.052914 0.444443 0.14 0.05 0.05
v 4.0912 -0.058795 0.461732 0.14 0.05 0.05
v 4.08758 -0.062417 0.480491 0.14 0.05 0.05
v 4.08636 -0.06364 0.5 0.14 0.05 0.05
v 4.15 -0.074832 0.444443 0.14 0.05 0.05
v 4.15 -0.083149 0.461732 0.14 0.05 0.05
v 4.1354 -0.073394 0.444443 0.14 0.05 0.05
v 4.13378 -0.081551 0.461732 0.14 0.05 0.05
v 4.15 -0.088271 0.480491 0.14 0.05 0.05
v 4.15 -0.09 0.5 0.14 0.05 0.05
v 4.12136 -0.069136 0.444443 0.14 0.05 0.05
v 4.11818 -0.07682 0.461732 0.14 0.05 0.05
v 4.13278 -0.086575 0.480491 0.14 0.05 0.05
v 4.13244 -0.088271 0.5 0.14 0.05 0.05
v 4.15 -0.135 0.5 0.14 0.05 0.05
v 4.12366 -0.132406 0.5 0.14 0.05 0.05
v 4.10381 -0.069136 0.461732 0.14 0.05 0.05
v 4.11622 -0.081551 0.480491 0.14 0.05 0.05
v 4.11556 -0.083149 0.5 0.14 0.05 0.05
v 4.10096 -0.073394 0.480491 0.14 0.05 0.05
v 4.1 -0.074832 0.5 0.14 0.05 0.05
v 4.09834 -0.124724 0.5 0.14 0.05 0.05
v 4.07661 -0.014599 0.444443 0.14 0.05 0.05
v 4.06685 -0 0.461732 0.14 0.05 0.05
v 4.06845 -0.016222 0.461732 0.14 0.05 0.05
v 4.08086 -0.028637 0.444443 0.14 0.05 0.05
v 4.07318 -0.03182 0.461732 0.14 0.05 0.05
v 4.06343 -0.017221 0.480491 0.14 0.05 0.05
v 4.06173 -0.017558 0.5 0.14 0.05 0.05
v 4.08086 -0.046195 0.461732 0.14 0.05 0.05
v 4.07661 -0.049041 0.480491 0.14 0.05 0.05
v 4.07517 -0.050001 0.5 0.14 0.05 0.05
v 4.06845 -0.03378 0.480491 0.14 0.05 0.05
v 4.06685 -0.034441 0.5 0.14 0.05 0.05
v 4.015 0 0.5 0.14 0.05 0.05
v 4.01759 -0.026337 0.5 0.14 0.05 0.05
v 4.02528 -0.051662 0.5 0.14 0.05 0.05
v 4.05454 -0.095459 0.5 0.14 0.05 0.05
v 4.075 -0.112248 0.5 0.14 0.05 0.05
v 4.03775 -0.075002 0.5 0.14 0.05 0.05
f 297 238 237
f 297 237 296
f 303 239 238
f 303 238 297
f 320 244 239
f 320 239 303
f 319 243 244
f 319 244 320
f 321 245 243
f 321 243 319
f 318 242 245
f 318 245 321
f 317 241 242
f 317 242 318
f 316 240 241
f 316 241 317
f 236 165 240
f 236 240 316
f 235 164 165
f 235 165 236
f 220 163 164
f 220 164 235
f 219 162 163
f 219 163 220
f 218 161 162
f 218 162 219
f 175 160 161
f 175 161 218
f 167 159 160
f 167 160 175
f 166 158 159
f 166 159 167
f 30 7 158
f 30 158 166
f 24 6 7
f 24 7 30
f 9 2 6
f 9 6 24
f 10 3 2
f 10 2 9
f 8 1 3
f 8 3 10
f 11 4 1
f 11 1 8
f 12 5 4
f 12 4 11
f 86 78 5
f 86 5 12
f 87 79 78
f 87 78 86
f 88 80 79
f 88 79 87
f 104 81 80
f 104 80 88
f 105 82 81
f 105 81 104
f 106 83 82
f 106 82 105
f 150 84 83
f 150 83 106
f 297 296 157
f 157 150 106
f 106 105 104
f 104 88 87
f 87 86 12
f 12 11 8
f 8 10 9
f 9 24 30
f 30 166 167
f 167 175 218
f 218 219 220
f 235 315 310
f 235 310 234
f 218 220 235
f 30 167 218
f 8 9 30
f 87 12 8
f 106 104 87
f 297 157 106
f 313 303 297
f 285 313 297
f 297 106 87
f 87 8 30
f 30 218 235
f 235 234 232
f 235 232 225
f 302 285 297
f 300 302 297
f 235 225 223
f 235 223 208
f 295 300 297
f 291 295 297
f 235 208 180
f 235 180 178
f 154 291 297
f 149 154 297
f 30 235 178
f 30 178 172
f 147 149 297
f 147 297 87
f 30 172 36
f 30 36 32
f 124 147 87
f 103 124 87
f 30 32 29
f 30 29 27
f 101 103 87
f 92 101 87
f 30 27 47
f 30 47 17
f 90 92 87
f 19 90 87
f 87 30 17
f 15 19 87
f 87 17 15
f 320 303 313
f 315 235 236
f 320 313 315
f 321 319 320
f 317 318 321
f 236 316 317
f 320 315 236
f 317 321 320
f 236 317 320
f 157 85 84
f 157 84 150
f 296 237 85
f 296 85 157
f 242 241 240
f 240 165 164
f 164 163 162
f 162 161 160
f 160 159 158
f 158 7 6
f 6 2 3
f 3 1 4
f 4 5 78
f 78 79 80
f 80 81 82
f 82 83 84
f 84 85 237
f 237 238 239
f 239 244 243
f 243 245 242
f 242 240 164
f 164 162 160
f 160 158 6
f 6 3 4
f 4 78 80
f 80 82 84
f 84 237 239
f 239 243 242
f 242 164 160
f 160 6 4
f 4 80 84
f 84 239 242
f 242 160 4
f 4 84 242
f 262 263 265
f 262 265 264
f 260 261 263
f 260 263 262
f 252 253 261
f 252 261 260
f 246 253 252
f 295 291 290
f 295 290 294
f 287 289 294
f 287 294 290
f 289 287 286
f 289 286 288
f 264 265 288
f 264 288 286
f 265 268 292
f 265 292 288
f 268 265 263
f 268 263 266
f 261 254 266
f 261 266 263
f 253 247 254
f 253 254 261
f 246 247 253
f 294 299 300
f 294 300 295
f 289 293 299
f 289 299 294
f 288 292 293
f 288 293 289
f 246 250 247
f 302 300 299
f 302 299 301
f 293 298 301
f 293 301 299
f 292 280 298
f 292 298 293
f 280 292 268
f 280 268 278
f 266 267 278
f 266 278 268
f 254 258 267
f 254 267 266
f 247 250 258
f 247 258 254
f 267 276 277
f 267 277 278
f 258 257 276
f 258 276 267
f 250 249 257
f 250 257 258
f 246 249 250
f 301 284 285
f 301 285 302
f 298 283 284
f 298 284 301
f 283 298 280
f 283 280 282
f 278 277 282
f 278 282 280
f 313 285 284
f 313 284 312
f 283 311 312
f 283 312 284
f 282 281 311
f 282 311 283
f 277 279 281
f 277 281 282
f 276 271 279
f 276 279 277
f 257 259 271
f 257 271 276
f 249 251 259
f 249 259 257
f 246 251 249
f 271 272 275
f 271 275 279
f 259 256 272
f 259 272 271
f 251 248 256
f 251 256 259
f 246 248 251
f 312 314 315
f 312 315 313
f 311 308 314
f 311 314 312
f 281 307 308
f 281 308 311
f 279 275 307
f 279 307 281
f 308 306 309
f 308 309 314
f 307 304 306
f 307 306 308
f 275 274 304
f 275 304 307
f 272 270 274
f 272 274 275
f 256 269 270
f 256 270 272
f 248 255 269
f 248 269 256
f 246 255 248
f 310 315 314
f 310 314 309
f 269 213 215
f 269 215 270
f 255 198 213
f 255 213 269
f 246 198 255
f 309 233 234
f 309 234 310
f 306 305 233
f 306 233 309
f 304 229 305
f 304 305 306
f 274 273 229
f 274 229 304
f 270 215 273
f 270 273 274
f 305 230 231
f 305 231 233
f 229 228 230
f 229 230 305
f 273 217 228
f 273 228 229
f 215 214 217
f 215 217 273
f 213 212 214
f 213 214 215
f 198 197 212
f 198 212 213
f 246 197 198
f 233 231 232
f 233 232 234
f 212 199 211
f 212 211 214
f 197 193 199
f 197 199 212
f 246 193 197
f 231 224 225
f 231 225 232
f 230 227 224
f 230 224 231
f 228 226 227
f 228 227 230
f 217 216 226
f 217 226 228
f 214 211 216
f 214 216 217
f 226 209 221
f 226 221 227
f 216 203 209
f 216 209 226
f 211 210 203
f 211 203 216
f 199 196 210
f 199 210 211
f 193 192 196
f 193 196 199
f 246 192 193
f 224 222 223
f 224 223 225
f 227 221 222
f 227 222 224
f 195 196 192
f 195 192 191
f 246 191 192
f 222 207 208
f 222 208 223
f 221 206 207
f 221 207 222
f 209 205 206
f 209 206 221
f 203 202 205
f 203 205 209
f 210 201 202
f 210 202 203
f 196 195 201
f 196 201 210
f 202 200 204
f 202 204 205
f 201 186 200
f 201 200 202
f 186 201 195
f 186 195 194
f 191 190 194
f 191 194 195
f 246 190 191
f 207 179 180
f 207 180 208
f 206 176 179
f 206 179 207
f 205 204 176
f 205 176 206
f 246 189 190
f 179 177 178
f 179 178 180
f 176 173 177
f 176 177 179
f 204 174 173
f 204 173 176
f 200 184 174
f 200 174 204
f 184 200 186
f 184 186 185
f 194 188 185
f 194 185 186
f 190 189 188
f 190 188 194
f 184 181 170
f 184 170 174
f 185 183 181
f 185 181 184
f 183 185 188
f 183 188 182
f 189 187 182
f 189 182 188
f 246 187 189
f 177 171 172
f 177 172 178
f 173 169 171
f 173 171 177
f 174 170 169
f 174 169 173
f 71 187 246
f 171 35 36
f 171 36 172
f 35 171 169
f 35 169 168
f 170 39 168
f 170 168 169
f 39 170 181
f 39 181 60
f 183 62 60
f 183 60 181
f 62 183 182
f 62 182 64
f 64 182 187
f 64 187 71
f 62 61 59
f 62 59 60
f 61 62 64
f 61 64 63
f 63 64 71
f 63 71 70
f 70 71 246
f 35 31 32
f 35 32 36
f 31 35 168
f 31 168 37
f 39 38 37
f 39 37 168
f 38 39 60
f 38 60 59
f 29 32 31
f 29 31 28
f 37 33 28
f 37 28 31
f 33 37 38
f 33 38 34
f 34 38 59
f 34 59 56
f 61 58 56
f 61 56 59
f 58 61 63
f 58 63 72
f 72 63 70
f 72 70 77
f 77 70 246
f 41 56 58
f 41 58 57
f 57 58 72
f 57 72 66
f 66 72 77
f 66 77 74
f 74 77 246
f 28 26 27
f 28 27 29
f 33 25 26
f 33 26 28
f 25 33 34
f 25 34 49
f 56 41 49
f 56 49 34
f 46 26 25
f 46 25 45
f 49 44 45
f 49 45 25
f 41 42 44
f 41 44 49
f 42 41 57
f 42 57 43
f 43 57 66
f 43 66 67
f 67 66 74
f 67 74 75
f 75 74 246
f 47 27 26
f 47 26 46
f 53 43 67
f 53 67 65
f 65 67 75
f 65 75 73
f 75 246 73
f 46 16 17
f 46 17 47
f 45 13 16
f 45 16 46
f 13 45 44
f 13 44 48
f 42 40 48
f 42 48 44
f 40 42 43
f 40 43 53
f 48 21 20
f 48 20 13
f 21 48 40
f 21 40 50
f 50 40 53
f 50 53 52
f 52 53 65
f 52 65 69
f 69 65 73
f 69 73 76
f 73 246 76
f 15 17 16
f 15 16 14
f 13 20 14
f 13 14 16
f 55 69 76
f 55 76 68
f 68 76 246
f 14 18 19
f 14 19 15
f 20 22 18
f 20 18 14
f 22 20 21
f 22 21 23
f 50 51 23
f 50 23 21
f 51 50 52
f 51 52 54
f 54 52 69
f 54 69 55
f 93 22 23
f 93 23 95
f 95 23 51
f 95 51 107
f 54 110 107
f 54 107 51
f 110 54 55
f 110 55 112
f 112 55 68
f 112 68 126
f 68 246 126
f 90 19 18
f 90 18 89
f 89 18 22
f 89 22 93
f 113 112 126
f 113 126 127
f 126 246 127
f 92 90 89
f 92 89 91
f 91 89 93
f 91 93 94
f 94 93 95
f 94 95 96
f 96 95 107
f 96 107 108
f 110 111 108
f 110 108 107
f 111 110 112
f 111 112 113
f 98 96 108
f 98 108 109
f 109 108 111
f 109 111 114
f 114 111 113
f 114 113 128
f 128 113 127
f 128 127 132
f 246 132 127
f 101 92 91
f 101 91 100
f 94 97 100
f 94 100 91
f 97 94 96
f 97 96 98
f 246 133 132
f 103 101 100
f 103 100 102
f 97 99 102
f 97 102 100
f 99 97 98
f 99 98 120
f 120 98 109
f 120 109 116
f 116 109 114
f 116 114 115
f 115 114 128
f 115 128 129
f 129 128 132
f 129 132 133
f 116 117 121
f 116 121 120
f 117 116 115
f 117 115 118
f 118 115 129
f 118 129 130
f 133 134 130
f 133 130 129
f 246 134 133
f 124 103 102
f 124 102 123
f 123 102 99
f 123 99 122
f 122 99 120
f 122 120 121
f 246 135 134
f 147 124 123
f 147 123 146
f 122 145 146
f 122 146 123
f 145 122 121
f 145 121 125
f 117 119 125
f 117 125 121
f 119 117 118
f 119 118 139
f 130 131 139
f 130 139 118
f 131 130 134
f 131 134 135
f 139 140 141
f 139 141 119
f 140 139 131
f 140 131 138
f 138 131 135
f 138 135 136
f 246 136 135
f 149 147 146
f 149 146 148
f 145 152 148
f 145 148 146
f 125 151 152
f 125 152 145
f 151 125 119
f 151 119 141
f 152 156 153
f 152 153 148
f 156 152 151
f 156 151 155
f 141 144 155
f 141 155 151
f 144 141 140
f 144 140 142
f 138 143 142
f 138 142 140
f 143 138 136
f 143 136 137
f 246 137 136
f 154 149 148
f 154 148 153
f 143 260 262
f 143 262 142
f 137 252 260
f 137 260 143
f 246 252 137
f 291 154 153
f 291 153 290
f 156 287 290
f 156 290 153
f 287 156 155
f 287 155 286
f 144 264 286
f 144 286 155
f 142 262 264
f 142 264 144
