v -3.025 3 0.6 0.11 0 0
v -3.025 3 0.65 0.11 0 0
v -2.975 3 0.6 0.11 0 0
v -2.975 3 0.65 0.11 0 0
v -3.025 -3 0.6 0.11 0 0
v -3.025 -3 0.65 0.11 0 0
v -2.975 -3 0.6 0.11 0 0
v -2.975 -3 0.65 0.11 0 0
v 2.975 3 0.6 0.11 0 0
v 2.975 3 0.65 0.11 0 0
v 3.025 3 0.6 0.11 0 0
v 3.025 3 0.65 0.11 0 0
v 2.975 -3 0.6 0.11 0 0
v 2.975 -3 0.65 0.11 0 0
v 3.025 -3 0.6 0.11 0 0
v 3.025 -3 0.65 0.11 0 0
v 3 3.025 0.6 0.11 0 0
v 3 3.025 0.65 0.11 0 0
v 3 2.975 0.6 0.11 0 0
v 3 2.975 0.65 0.11 0 0
v -0.8 3.025 0.6 0.11 0 0
v -0.8 3.025 0.65 0.11 0 0
v -0.8 2.975 0.6 0.11 0 0
v -0.8 2.975 0.65 0.11 0 0
v -1.8 3.025 0.6 0.11 0 0
v -1.8 3.025 0.65 0.11 0 0
v -1.8 2.975 0.6 0.11 0 0
v -1.8 2.975 0.65 0.11 0 0
v -3 3.025 0.6 0.11 0 0
v -3 3.025 0.65 0.11 0 0
v -3 2.975 0.6 0.11 0 0
v -3 2.975 0.65 0.11 0 0
v 3 -2.975 0.6 0.11 0 0
v 3 -2.975 0.65 0.11 0 0
v 3 -3.025 0.6 0.11 0 0
v 3 -3.025 0.65 0.11 0 0
v -0.8 -2.975 0.6 0.11 0 0
v -0.8 -2.975 0.65 0.11 0 0
v -0.8 -3.025 0.6 0.11 0 0
v -0.8 -3.025 0.65 0.11 0 0
v -1.8 -2.975 0.6 0.11 0 0
v -1.8 -2.975 0.65 0.11 0 0
v -1.8 -3.025 0.6 0.11 0 0
v -1.8 -3.025 0.65 0.11 0 0
v -3 -2.975 0.6 0.11 0 0
v -3 -2.975 0.65 0.11 0 0
v -3 -3.025 0.6 0.11 0 0
v -3 -3.025 0.65 0.11 0 0
f 1 2 4
f 1 4 3
f 3 4 8
f 3 8 7
f 7 8 6
f 7 6 5
f 5 6 2
f 5 2 1
f 3 7 5
f 3 5 1
f 8 4 2
f 8 2 6
f 9 10 12
f 9 12 11
f 11 12 16
f 11 16 15
f 15 16 14
f 15 14 13
f 13 14 10
f 13 10 9
f 11 15 13
f 11 13 9
f 16 12 10
f 16 10 14
f 17 18 20
f 17 20 19
f 19 20 24
f 19 24 23
f 23 24 22
f 23 22 21
f 21 22 18
f 21 18 17
f 19 23 21
f 19 21 17
f 24 20 18
f 24 18 22
f 25 26 28
f 25 28 27
f 27 28 32
f 27 32 31
f 31 32 30
f 31 30 29
f 29 30 26
f 29 26 25
f 27 31 29
f 27 29 25
f 32 28 26
f 32 26 30
f 33 34 36
f 33 36 35
f 35 36 40
f 35 40 39
f 39 40 38
f 39 38 37
f 37 38 34
f 37 34 33
f 35 39 37
f 35 37 33
f 40 36 34
f 40 34 38
f 41 42 44
f 41 44 43
f 43 44 48
f 43 48 47
f 47 48 46
f 47 46 45
f 45 46 42
f 45 42 41
f 43 47 45
f 43 45 41
f 48 44 42
f 48 42 46
