v -4.8 -4.8 0.001 0 0 0.8
v -5.5 -4.8 0.001 0 0 0.8
v -4.8 -5.5 0.001 0 0 0.8
v -5.5 -5.5 0.001 0 0 0.8
v -4.8 -4 0.001 0 0 0.8
v -5.5 -4 0.001 0 0 0.8
v -4.8 -4.7 0.001 0 0 0.8
v -5.5 -4.7 0.001 0 0 0.8
v 5.5 -3.5 0.001 0 0 0.8
v 4.5 -3.5 0.001 0 0 0.8
v 5.5 -5.5 0.001 0 0 0.8
v 4.5 -5.5 0.001 0 0 0.8
v -3.7 -0.35 0.03 0 0 0.8
v -3.7 -0.35 0.23 0 0 0.8
v -3.7 -0.45 0.03 0 0 0.8
v -3.7 -0.45 0.23 0 0 0.8
v -3.9 -0.35 0.03 0 0 0.8
v -3.9 -0.35 0.23 0 0 0.8
v -3.9 -0.45 0.03 0 0 0.8
v -3.9 -0.45 0.23 0 0 0.8
v -3.7 0.1 0.03 0 0 0.8
v -3.7 0.1 0.23 0 0 0.8
v -3.7 0 0.03 0 0 0.8
v -3.7 0 0.23 0 0 0.8
v -3.9 0.1 0.03 0 0 0.8
v -3.9 0.1 0.23 0 0 0.8
v -3.9 0 0.03 0 0 0.8
v -3.9 0 0.23 0 0 0.8
v -3.7 0.55 0.03 0 0 0.8
v -3.7 0.55 0.23 0 0 0.8
v -3.7 0.45 0.03 0 0 0.8
v -3.7 0.45 0.23 0 0 0.8
v -3.9 0.55 0.03 0 0 0.8
v -3.9 0.55 0.23 0 0 0.8
v -3.9 0.45 0.03 0 0 0.8
v -3.9 0.45 0.23 0 0 0.8
v -3.9 0.325 0.03 0 0 0.8
v -3.9 0.325 0.23 0 0 0.8
v -3.9 0.225 0.03 0 0 0.8
v -3.9 0.225 0.23 0 0 0.8
v -4.1 0.325 0.03 0 0 0.8
v -4.1 0.325 0.23 0 0 0.8
v -4.1 0.225 0.03 0 0 0.8
v -4.1 0.225 0.23 0 0 0.8
v -3.9 -0.125 0.03 0 0 0.8
v -3.9 -0.125 0.23 0 0 0.8
v -3.9 -0.225 0.03 0 0 0.8
v -3.9 -0.225 0.23 0 0 0.8
v -4.1 -0.125 0.03 0 0 0.8
v -4.1 -0.125 0.23 0 0 0.8
v -4.1 -0.225 0.03 0 0 0.8
v -4.1 -0.225 0.23 0 0 0.8
v -4.1 0.55 0.03 0 0 0.8
v -4.1 0.55 0.23 0 0 0.8
v -4.1 0.45 0.03 0 0 0.8
v -4.1 0.45 0.23 0 0 0.8
v -4.3 0.55 0.03 0 0 0.8
v -4.3 0.55 0.23 0 0 0.8
v -4.3 0.45 0.03 0 0 0.8
v -4.3 0.45 0.23 0 0 0.8
v -4.1 -0.35 0.03 0 0 0.8
v -4.1 -0.35 0.23 0 0 0.8
v -4.1 -0.45 0.03 0 0 0.8
v -4.1 -0.45 0.23 0 0 0.8
v -4.3 -0.35 0.03 0 0 0.8
v -4.3 -0.35 0.23 0 0 0.8
v -4.3 -0.45 0.03 0 0 0.8
v -4.3 -0.45 0.23 0 0 0.8
v -4.3 0.325 0.03 0 0 0.8
v -4.3 0.325 0.23 0 0 0.8
v -4.3 0.225 0.03 0 0 0.8
v -4.3 0.225 0.23 0 0 0.8
v -4.5 0.325 0.03 0 0 0.8
v -4.5 0.325 0.23 0 0 0.8
v -4.5 0.225 0.03 0 0 0.8
v -4.5 0.225 0.23 0 0 0.8
v -4.3 -0.125 0.03 0 0 0.8
v -4.3 -0.125 0.23 0 0 0.8
v -4.3 -0.225 0.03 0 0 0.8
v -4.3 -0.225 0.23 0 0 0.8
v -4.5 -0.125 0.03 0 0 0.8
v -4.5 -0.125 0.23 0 0 0.8
v -4.5 -0.225 0.03 0 0 0.8
v -4.5 -0.225 0.23 0 0 0.8
v -4.5 0.55 0.03 0 0 0.8
v -4.5 0.55 0.23 0 0 0.8
v -4.5 0.45 0.03 0 0 0.8
v -4.5 0.45 0.23 0 0 0.8
v -4.7 0.55 0.03 0 0 0.8
v -4.7 0.55 0.23 0 0 0.8
v -4.7 0.45 0.03 0 0 0.8
v -4.7 0.45 0.23 0 0 0.8
v -4.5 0.1 0.03 0 0 0.8
v -4.5 0.1 0.23 0 0 0.8
v -4.5 0 0.03 0 0 0.8
v -4.5 0 0.23 0 0 0.8
v -4.7 0.1 0.03 0 0 0.8
v -4.7 0.1 0.23 0 0 0.8
v -4.7 0 0.03 0 0 0.8
v -4.7 0 0.23 0 0 0.8
v -4.5 -0.35 0.03 0 0 0.8
v -4.5 -0.35 0.23 0 0 0.8
v -4.5 -0.45 0.03 0 0 0.8
v -4.5 -0.45 0.23 0 0 0.8
v -4.7 -0.35 0.03 0 0 0.8
v -4.7 -0.35 0.23 0 0 0.8
v -4.7 -0.45 0.03 0 0 0.8
v -4.7 -0.45 0.23 0 0 0.8
f 1 2 4
f 1 4 3
f 5 6 8
f 5 8 7
f 9 10 12
f 9 12 11
f 13 14 16
f 13 16 15
f 15 16 20
f 15 20 19
f 19 20 18
f 19 18 17
f 17 18 14
f 17 14 13
f 15 19 17
f 15 17 13
f 20 16 14
f 20 14 18
f 21 22 24
f 21 24 23
f 23 24 28
f 23 28 27
f 27 28 26
f 27 26 25
f 25 26 22
f 25 22 21
f 23 27 25
f 23 25 21
f 28 24 22
f 28 22 26
f 29 30 32
f 29 32 31
f 31 32 36
f 31 36 35
f 35 36 34
f 35 34 33
f 33 34 30
f 33 30 29
f 31 35 33
f 31 33 29
f 36 32 30
f 36 30 34
f 37 38 40
f 37 40 39
f 39 40 44
f 39 44 43
f 43 44 42
f 43 42 41
f 41 42 38
f 41 38 37
f 39 43 41
f 39 41 37
f 44 40 38
f 44 38 42
f 45 46 48
f 45 48 47
f 47 48 52
f 47 52 51
f 51 52 50
f 51 50 49
f 49 50 46
f 49 46 45
f 47 51 49
f 47 49 45
f 52 48 46
f 52 46 50
f 53 54 56
f 53 56 55
f 55 56 60
f 55 60 59
f 59 60 58
f 59 58 57
f 57 58 54
f 57 54 53
f 55 59 57
f 55 57 53
f 60 56 54
f 60 54 58
f 61 62 64
f 61 64 63
f 63 64 68
f 63 68 67
f 67 68 66
f 67 66 65
f 65 66 62
f 65 62 61
f 63 67 65
f 63 65 61
f 68 64 62
f 68 62 66
f 69 70 72
f 69 72 71
f 71 72 76
f 71 76 75
f 75 76 74
f 75 74 73
f 73 74 70
f 73 70 69
f 71 75 73
f 71 73 69
f 76 72 70
f 76 70 74
f 77 78 80
f 77 80 79
f 79 80 84
f 79 84 83
f 83 84 82
f 83 82 81
f 81 82 78
f 81 78 77
f 79 83 81
f 79 81 77
f 84 80 78
f 84 78 82
f 85 86 88
f 85 88 87
f 87 88 92
f 87 92 91
f 91 92 90
f 91 90 89
f 89 90 86
f 89 86 85
f 87 91 89
f 87 89 85
f 92 88 86
f 92 86 90
f 93 94 96
f 93 96 95
f 95 96 100
f 95 100 99
f 99 100 98
f 99 98 97
f 97 98 94
f 97 94 93
f 95 99 97
f 95 97 93
f 100 96 94
f 100 94 98
f 101 102 104
f 101 104 103
f 103 104 108
f 103 108 107
f 107 108 106
f 107 106 105
f 105 106 102
f 105 102 101
f 103 107 105
f 103 105 101
f 108 104 102
f 108 102 106
