v -4.8 5.5 0.001 0.8 0 0
v -5.5 5.5 0.001 0.8 0 0
v -4.8 4.8 0.001 0.8 0 0
v -5.5 4.8 0.001 0.8 0 0
v -4.8 4.7 0.001 0.8 0 0
v -5.5 4.7 0.001 0.8 0 0
v -4.8 4 0.001 0.8 0 0
v -5.5 4 0.001 0.8 0 0
v 5.5 5.5 0.001 0.8 0 0
v 4.5 5.5 0.001 0.8 0 0
v 5.5 3.5 0.001 0.8 0 0
v 4.5 3.5 0.001 0.8 0 0
v 3 2.25 0.602 0.8 0 0
v 2.3 2.25 0.602 0.8 0 0
v 3 1.55 0.602 0.8 0 0
v 2.3 1.55 0.602 0.8 0 0
v -3.7 -0.45 0.03 0.8 0 0
v -3.7 -0.45 0.23 0.8 0 0
v -3.7 -0.55 0.03 0.8 0 0
v -3.7 -0.55 0.23 0.8 0 0
v -3.9 -0.45 0.03 0.8 0 0
v -3.9 -0.45 0.23 0.8 0 0
v -3.9 -0.55 0.03 0.8 0 0
v -3.9 -0.55 0.23 0.8 0 0
v -3.7 0 0.03 0.8 0 0
v -3.7 0 0.23 0.8 0 0
v -3.7 -0.1 0.03 0.8 0 0
v -3.7 -0.1 0.23 0.8 0 0
v -3.9 0 0.03 0.8 0 0
v -3.9 0 0.23 0.8 0 0
v -3.9 -0.1 0.03 0.8 0 0
v -3.9 -0.1 0.23 0.8 0 0
v -3.7 0.45 0.03 0.8 0 0
v -3.7 0.45 0.23 0.8 0 0
v -3.7 0.35 0.03 0.8 0 0
v -3.7 0.35 0.23 0.8 0 0
v -3.9 0.45 0.03 0.8 0 0
v -3.9 0.45 0.23 0.8 0 0
v -3.9 0.35 0.03 0.8 0 0
v -3.9 0.35 0.23 0.8 0 0
v -3.9 0.225 0.03 0.8 0 0
v -3.9 0.225 0.23 0.8 0 0
v -3.9 0.125 0.03 0.8 0 0
v -3.9 0.125 0.23 0.8 0 0
v -4.1 0.225 0.03 0.8 0 0
v -4.1 0.225 0.23 0.8 0 0
v -4.1 0.125 0.03 0.8 0 0
v -4.1 0.125 0.23 0.8 0 0
v -3.9 -0.225 0.03 0.8 0 0
v -3.9 -0.225 0.23 0.8 0 0
v -3.9 -0.325 0.03 0.8 0 0
v -3.9 -0.325 0.23 0.8 0 0
v -4.1 -0.225 0.03 0.8 0 0
v -4.1 -0.225 0.23 0.8 0 0
v -4.1 -0.325 0.03 0.8 0 0
v -4.1 -0.325 0.23 0.8 0 0
v -4.1 0.45 0.03 0.8 0 0
v -4.1 0.45 0.23 0.8 0 0
v -4.1 0.35 0.03 0.8 0 0
v -4.1 0.35 0.23 0.8 0 0
v -4.3 0.45 0.03 0.8 0 0
v -4.3 0.45 0.23 0.8 0 0
v -4.3 0.35 0.03 0.8 0 0
v -4.3 0.35 0.23 0.8 0 0
v -4.1 -0.45 0.03 0.8 0 0
v -4.1 -0.45 0.23 0.8 0 0
v -4.1 -0.55 0.03 0.8 0 0
v -4.1 -0.55 0.23 0.8 0 0
v -4.3 -0.45 0.03 0.8 0 0
v -4.3 -0.45 0.23 0.8 0 0
v -4.3 -0.55 0.03 0.8 0 0
v -4.3 -0.55 0.23 0.8 0 0
v -4.3 0.225 0.03 0.8 0 0
v -4.3 0.225 0.23 0.8 0 0
v -4.3 0.125 0.03 0.8 0 0
v -4.3 0.125 0.23 0.8 0 0
v -4.5 0.225 0.03 0.8 0 0
v -4.5 0.225 0.23 0.8 0 0
v -4.5 0.125 0.03 0.8 0 0
v -4.5 0.125 0.23 0.8 0 0
v -4.3 -0.225 0.03 0.8 0 0
v -4.3 -0.225 0.23 0.8 0 0
v -4.3 -0.325 0.03 0.8 0 0
v -4.3 -0.325 0.23 0.8 0 0
v -4.5 -0.225 0.03 0.8 0 0
v -4.5 -0.225 0.23 0.8 0 0
v -4.5 -0.325 0.03 0.8 0 0
v -4.5 -0.325 0.23 0.8 0 0
v -4.5 0.45 0.03 0.8 0 0
v -4.5 0.45 0.23 0.8 0 0
v -4.5 0.35 0.03 0.8 0 0
v -4.5 0.35 0.23 0.8 0 0
v -4.7 0.45 0.03 0.8 0 0
v -4.7 0.45 0.23 0.8 0 0
v -4.7 0.35 0.03 0.8 0 0
v -4.7 0.35 0.23 0.8 0 0
v -4.5 0 0.03 0.8 0 0
v -4.5 0 0.23 0.8 0 0
v -4.5 -0.1 0.03 0.8 0 0
v -4.5 -0.1 0.23 0.8 0 0
v -4.7 0 0.03 0.8 0 0
v -4.7 0 0.23 0.8 0 0
v -4.7 -0.1 0.03 0.8 0 0
v -4.7 -0.1 0.23 0.8 0 0
v -4.5 -0.45 0.03 0.8 0 0
v -4.5 -0.45 0.23 0.8 0 0
v -4.5 -0.55 0.03 0.8 0 0
v -4.5 -0.55 0.23 0.8 0 0
v -4.7 -0.45 0.03 0.8 0 0
v -4.7 -0.45 0.23 0.8 0 0
v -4.7 -0.55 0.03 0.8 0 0
v -4.7 -0.55 0.23 0.8 0 0
f 1 2 4
f 1 4 3
f 5 6 8
f 5 8 7
f 9 10 12
f 9 12 11
f 13 14 16
f 13 16 15
f 17 18 20
f 17 20 19
f 19 20 24
f 19 24 23
f 23 24 22
f 23 22 21
f 21 22 18
f 21 18 17
f 19 23 21
f 19 21 17
f 24 20 18
f 24 18 22
f 25 26 28
f 25 28 27
f 27 28 32
f 27 32 31
f 31 32 30
f 31 30 29
f 29 30 26
f 29 26 25
f 27 31 29
f 27 29 25
f 32 28 26
f 32 26 30
f 33 34 36
f 33 36 35
f 35 36 40
f 35 40 39
f 39 40 38
f 39 38 37
f 37 38 34
f 37 34 33
f 35 39 37
f 35 37 33
f 40 36 34
f 40 34 38
f 41 42 44
f 41 44 43
f 43 44 48
f 43 48 47
f 47 48 46
f 47 46 45
f 45 46 42
f 45 42 41
f 43 47 45
f 43 45 41
f 48 44 42
f 48 42 46
f 49 50 52
f 49 52 51
f 51 52 56
f 51 56 55
f 55 56 54
f 55 54 53
f 53 54 50
f 53 50 49
f 51 55 53
f 51 53 49
f 56 52 50
f 56 50 54
f 57 58 60
f 57 60 59
f 59 60 64
f 59 64 63
f 63 64 62
f 63 62 61
f 61 62 58
f 61 58 57
f 59 63 61
f 59 61 57
f 64 60 58
f 64 58 62
f 65 66 68
f 65 68 67
f 67 68 72
f 67 72 71
f 71 72 70
f 71 70 69
f 69 70 66
f 69 66 65
f 67 71 69
f 67 69 65
f 72 68 66
f 72 66 70
f 73 74 76
f 73 76 75
f 75 76 80
f 75 80 79
f 79 80 78
f 79 78 77
f 77 78 74
f 77 74 73
f 75 79 77
f 75 77 73
f 80 76 74
f 80 74 78
f 81 82 84
f 81 84 83
f 83 84 88
f 83 88 87
f 87 88 86
f 87 86 85
f 85 86 82
f 85 82 81
f 83 87 85
f 83 85 81
f 88 84 82
f 88 82 86
f 89 90 92
f 89 92 91
f 91 92 96
f 91 96 95
f 95 96 94
f 95 94 93
f 93 94 90
f 93 90 89
f 91 95 93
f 91 93 89
f 96 92 90
f 96 90 94
f 97 98 100
f 97 100 99
f 99 100 104
f 99 104 103
f 103 104 102
f 103 102 101
f 101 102 98
f 101 98 97
f 99 103 101
f 99 101 97
f 104 100 98
f 104 98 102
f 105 106 108
f 105 108 107
f 107 108 112
f 107 112 111
f 111 112 110
f 111 110 109
f 109 110 106
f 109 106 105
f 107 111 109
f 107 109 105
f 112 108 106
f 112 106 110
