v 0.112248 0.075002 0.9 0.17 0.04 0.04
v 0.075002 0.112248 0.9 0.17 0.04 0.04
v 0.095459 0.095459 0.9 0.17 0.04 0.04
v 0.124724 0.051662 0.9 0.17 0.04 0.04
v 0.132406 0.026337 0.9 0.17 0.04 0.04
v 0.051662 0.124724 0.9 0.17 0.04 0.04
v 0.026337 0.132406 0.9 0.17 0.04 0.04
v 0.112248 0.075002 1.7 0.17 0.04 0.04
v 0.075002 0.112248 1.7 0.17 0.04 0.04
v 0.095459 0.095459 1.7 0.17 0.04 0.04
v 0.124724 0.051662 1.7 0.17 0.04 0.04
v 0.132406 0.026337 1.7 0.17 0.04 0.04
v 0.081551 0.03378 1.68049 0.17 0.04 0.04
v 0.083149 0.034441 1.7 0.17 0.04 0.04
v 0.069136 0.046195 1.66173 0.17 0.04 0.04
v 0.073394 0.049041 1.68049 0.17 0.04 0.04
v 0.074832 0.050001 1.7 0.17 0.04 0.04
v 0.086575 0.017221 1.68049 0.17 0.04 0.04
v 0.088271 0.017558 1.7 0.17 0.04 0.04
v 0.069136 0.028637 1.64444 0.17 0.04 0.04
v 0.07682 0.03182 1.66173 0.17 0.04 0.04
v 0.073394 0.014599 1.64444 0.17 0.04 0.04
v 0.081551 0.016222 1.66173 0.17 0.04 0.04
v 0.051662 0.124724 1.7 0.17 0.04 0.04
v 0.046195 0.069136 1.66173 0.17 0.04 0.04
v 0.049041 0.073394 1.68049 0.17 0.04 0.04
v 0.050001 0.074832 1.7 0.17 0.04 0.04
v 0.03378 0.081551 1.68049 0.17 0.04 0.04
v 0.034441 0.083149 1.7 0.17 0.04 0.04
v 0.026337 0.132406 1.7 0.17 0.04 0.04
v 0.017221 0.086575 1.68049 0.17 0.04 0.04
v 0.017558 0.088271 1.7 0.17 0.04 0.04
v 0.028637 0.069136 1.64444 0.17 0.04 0.04
v 0.03182 0.07682 1.66173 0.17 0.04 0.04
v 0 0.09 1.7 0.17 0.04 0.04
v 0 0.088271 1.68049 0.17 0.04 0.04
v 0.014599 0.073394 1.64444 0.17 0.04 0.04
v 0 0.074832 1.64444 0.17 0.04 0.04
v 0.016222 0.081551 1.66173 0.17 0.04 0.04
v 0.052914 0.052914 1.64444 0.17 0.04 0.04
v 0.06364 0.06364 1.7 0.17 0.04 0.04
v 0.062417 0.062417 1.68049 0.17 0.04 0.04
v 0.058795 0.058795 1.66173 0.17 0.04 0.04
v 0.062221 0.041575 1.64444 0.17 0.04 0.04
v 0.052914 0.035356 1.62929 0.17 0.04 0.04
v 0.041575 0.062221 1.64444 0.17 0.04 0.04
v 0.035356 0.052914 1.62929 0.17 0.04 0.04
v 0.045 0.045 1.62929 0.17 0.04 0.04
v 0.035356 0.035356 1.61685 0.17 0.04 0.04
v 0.058795 0.024354 1.62929 0.17 0.04 0.04
v 0.062417 0.012415 1.62929 0.17 0.04 0.04
v 0.046195 0.019135 1.61685 0.17 0.04 0.04
v 0.041575 0.027779 1.61685 0.17 0.04 0.04
v 0.049041 0.009755 1.61685 0.17 0.04 0.04
v 0.03378 0.006719 1.60761 0.17 0.04 0.04
v 0.024354 0.058795 1.62929 0.17 0.04 0.04
v 0.027779 0.041575 1.61685 0.17 0.04 0.04
v 0.019135 0.046195 1.61685 0.17 0.04 0.04
v 0.012415 0.062417 1.62929 0.17 0.04 0.04
v 0 0.06364 1.62929 0.17 0.04 0.04
v 0.009755 0.049041 1.61685 0.17 0.04 0.04
v 0 0.050001 1.61685 0.17 0.04 0.04
v 0.006719 0.03378 1.60761 0.17 0.04 0.04
v 0 0.034441 1.60761 0.17 0.04 0.04
v 0.028637 0.019135 1.60761 0.17 0.04 0.04
v 0.019135 0.028637 1.60761 0.17 0.04 0.04
v 0.024354 0.024354 1.60761 0.17 0.04 0.04
v 0.03182 0.01318 1.60761 0.17 0.04 0.04
v 0.017221 0.003425 1.60192 0.17 0.04 0.04
v 0.01318 0.03182 1.60761 0.17 0.04 0.04
v 0.003425 0.017221 1.60192 0.17 0.04 0.04
v 0 0.017558 1.60192 0.17 0.04 0.04
v 0.014599 0.009755 1.60192 0.17 0.04 0.04
v 0.009755 0.014599 1.60192 0.17 0.04 0.04
v 0.012415 0.012415 1.60192 0.17 0.04 0.04
v 0.016222 0.006719 1.60192 0.17 0.04 0.04
v 0.006719 0.016222 1.60192 0.17 0.04 0.04
v 0.135 0 0.9 0.17 0.04 0.04
v 0.132406 -0.026337 0.9 0.17 0.04 0.04
v 0.124724 -0.051662 0.9 0.17 0.04 0.04
v 0.112248 -0.075002 0.9 0.17 0.04 0.04
v 0.095459 -0.095459 0.9 0.17 0.04 0.04
v 0.075002 -0.112248 0.9 0.17 0.04 0.04
v 0.051662 -0.124724 0.9 0.17 0.04 0.04
v 0.026337 -0.132406 0.9 0.17 0.04 0.04
v 0.135 0 1.7 0.17 0.04 0.04
v 0.132406 -0.026337 1.7 0.17 0.04 0.04
v 0.124724 -0.051662 1.7 0.17 0.04 0.04
v 0.09 -0 1.7 0.17 0.04 0.04
v 0.088271 -0 1.68049 0.17 0.04 0.04
v 0.086575 -0.017221 1.68049 0.17 0.04 0.04
v 0.088271 -0.017558 1.7 0.17 0.04 0.04
v 0.074832 -0 1.64444 0.17 0.04 0.04
v 0.073394 -0.014599 1.64444 0.17 0.04 0.04
v 0.083149 -0 1.66173 0.17 0.04 0.04
v 0.081551 -0.016222 1.66173 0.17 0.04 0.04
v 0.069136 -0.028637 1.64444 0.17 0.04 0.04
v 0.07682 -0.03182 1.66173 0.17 0.04 0.04
v 0.081551 -0.03378 1.68049 0.17 0.04 0.04
v 0.083149 -0.034441 1.7 0.17 0.04 0.04
v 0.069136 -0.046195 1.66173 0.17 0.04 0.04
v 0.073394 -0.049041 1.68049 0.17 0.04 0.04
v 0.074832 -0.050001 1.7 0.17 0.04 0.04
v 0.112248 -0.075002 1.7 0.17 0.04 0.04
v 0.095459 -0.095459 1.7 0.17 0.04 0.04
v 0.075002 -0.112248 1.7 0.17 0.04 0.04
v 0.06364 -0 1.62929 0.17 0.04 0.04
v 0.062417 -0.012415 1.62929 0.17 0.04 0.04
v 0.058795 -0.024354 1.62929 0.17 0.04 0.04
v 0.050001 -0 1.61685 0.17 0.04 0.04
v 0.049041 -0.009755 1.61685 0.17 0.04 0.04
v 0.034441 -0 1.60761 0.17 0.04 0.04
v 0.03378 -0.006719 1.60761 0.17 0.04 0.04
v 0.046195 -0.019135 1.61685 0.17 0.04 0.04
v 0.041575 -0.027779 1.61685 0.17 0.04 0.04
v 0.062221 -0.041575 1.64444 0.17 0.04 0.04
v 0.052914 -0.035356 1.62929 0.17 0.04 0.04
v 0.052914 -0.052914 1.64444 0.17 0.04 0.04
v 0.06364 -0.06364 1.7 0.17 0.04 0.04
v 0.062417 -0.062417 1.68049 0.17 0.04 0.04
v 0.058795 -0.058795 1.66173 0.17 0.04 0.04
v 0.045 -0.045 1.62929 0.17 0.04 0.04
v 0.035356 -0.035356 1.61685 0.17 0.04 0.04
v 0.035356 -0.052914 1.62929 0.17 0.04 0.04
v 0.041575 -0.062221 1.64444 0.17 0.04 0.04
v 0.03182 -0.01318 1.60761 0.17 0.04 0.04
v 0.017558 -0 1.60192 0.17 0.04 0.04
v 0.017221 -0.003425 1.60192 0.17 0.04 0.04
v 0.028637 -0.019135 1.60761 0.17 0.04 0.04
v 0.024354 -0.024354 1.60761 0.17 0.04 0.04
v 0.019135 -0.028637 1.60761 0.17 0.04 0.04
v 0.016222 -0.006719 1.60192 0.17 0.04 0.04
v 0.014599 -0.009755 1.60192 0.17 0.04 0.04
v 0.012415 -0.012415 1.60192 0.17 0.04 0.04
v 0.009755 -0.014599 1.60192 0.17 0.04 0.04
v 0.006719 -0.016222 1.60192 0.17 0.04 0.04
v 0.01318 -0.03182 1.60761 0.17 0.04 0.04
v 0.003425 -0.017221 1.60192 0.17 0.04 0.04
v 0.027779 -0.041575 1.61685 0.17 0.04 0.04
v 0.019135 -0.046195 1.61685 0.17 0.04 0.04
v 0.024354 -0.058795 1.62929 0.17 0.04 0.04
v 0.009755 -0.049041 1.61685 0.17 0.04 0.04
v 0.006719 -0.03378 1.60761 0.17 0.04 0.04
v 0.012415 -0.062417 1.62929 0.17 0.04 0.04
v 0.046195 -0.069136 1.66173 0.17 0.04 0.04
v 0.049041 -0.073394 1.68049 0.17 0.04 0.04
v 0.050001 -0.074832 1.7 0.17 0.04 0.04
v 0.03378 -0.081551 1.68049 0.17 0.04 0.04
v 0.034441 -0.083149 1.7 0.17 0.04 0.04
v 0.051662 -0.124724 1.7 0.17 0.04 0.04
v 0.028637 -0.069136 1.64444 0.17 0.04 0.04
v 0.03182 -0.07682 1.66173 0.17 0.04 0.04
v 0.017221 -0.086575 1.68049 0.17 0.04 0.04
v 0.017558 -0.088271 1.7 0.17 0.04 0.04
v 0.014599 -0.073394 1.64444 0.17 0.04 0.04
v 0.016222 -0.081551 1.66173 0.17 0.04 0.04
v 0.026337 -0.132406 1.7 0.17 0.04 0.04
v 0 0.135 0.9 0.17 0.04 0.04
v -0.026337 0.132406 0.9 0.17 0.04 0.04
v -0.051662 0.124724 0.9 0.17 0.04 0.04
v -0.075002 0.112248 0.9 0.17 0.04 0.04
v -0.095459 0.095459 0.9 0.17 0.04 0.04
v -0.112248 0.075002 0.9 0.17 0.04 0.04
v -0.124724 0.051662 0.9 0.17 0.04 0.04
v -0.132406 0.026337 0.9 0.17 0.04 0.04
v 0 0.135 1.7 0.17 0.04 0.04
v -0.026337 0.132406 1.7 0.17 0.04 0.04
v -0.014599 0.073394 1.64444 0.17 0.04 0.04
v -0 0.083149 1.66173 0.17 0.04 0.04
v -0.016222 0.081551 1.66173 0.17 0.04 0.04
v -0.017221 0.086575 1.68049 0.17 0.04 0.04
v -0.017558 0.088271 1.7 0.17 0.04 0.04
v -0.028637 0.069136 1.64444 0.17 0.04 0.04
v -0.03182 0.07682 1.66173 0.17 0.04 0.04
v -0.051662 0.124724 1.7 0.17 0.04 0.04
v -0.03378 0.081551 1.68049 0.17 0.04 0.04
v -0.034441 0.083149 1.7 0.17 0.04 0.04
v -0.046195 0.069136 1.66173 0.17 0.04 0.04
v -0.049041 0.073394 1.68049 0.17 0.04 0.04
v -0.050001 0.074832 1.7 0.17 0.04 0.04
v -0.012415 0.062417 1.62929 0.17 0.04 0.04
v -0.006719 0.03378 1.60761 0.17 0.04 0.04
v -0.009755 0.049041 1.61685 0.17 0.04 0.04
v -0.024354 0.058795 1.62929 0.17 0.04 0.04
v -0.019135 0.046195 1.61685 0.17 0.04 0.04
v -0.027779 0.041575 1.61685 0.17 0.04 0.04
v -0.003425 0.017221 1.60192 0.17 0.04 0.04
v -0.01318 0.03182 1.60761 0.17 0.04 0.04
v -0.006719 0.016222 1.60192 0.17 0.04 0.04
v -0.009755 0.014599 1.60192 0.17 0.04 0.04
v -0.012415 0.012415 1.60192 0.17 0.04 0.04
v -0.014599 0.009755 1.60192 0.17 0.04 0.04
v -0.016222 0.006719 1.60192 0.17 0.04 0.04
v -0.019135 0.028637 1.60761 0.17 0.04 0.04
v -0.024354 0.024354 1.60761 0.17 0.04 0.04
v -0.028637 0.019135 1.60761 0.17 0.04 0.04
v -0.017221 0.003425 1.60192 0.17 0.04 0.04
v -0.017558 0 1.60192 0.17 0.04 0.04
v -0.03182 0.01318 1.60761 0.17 0.04 0.04
v -0.041575 0.062221 1.64444 0.17 0.04 0.04
v -0.035356 0.052914 1.62929 0.17 0.04 0.04
v -0.035356 0.035356 1.61685 0.17 0.04 0.04
v -0.045 0.045 1.62929 0.17 0.04 0.04
v -0.052914 0.052914 1.64444 0.17 0.04 0.04
v -0.058795 0.058795 1.66173 0.17 0.04 0.04
v -0.062417 0.062417 1.68049 0.17 0.04 0.04
v -0.06364 0.06364 1.7 0.17 0.04 0.04
v -0.052914 0.035356 1.62929 0.17 0.04 0.04
v -0.062221 0.041575 1.64444 0.17 0.04 0.04
v -0.041575 0.027779 1.61685 0.17 0.04 0.04
v -0.046195 0.019135 1.61685 0.17 0.04 0.04
v -0.03378 0.006719 1.60761 0.17 0.04 0.04
v -0.034441 0 1.60761 0.17 0.04 0.04
v -0.049041 0.009755 1.61685 0.17 0.04 0.04
v -0.050001 0 1.61685 0.17 0.04 0.04
v -0.058795 0.024354 1.62929 0.17 0.04 0.04
v -0.062417 0.012415 1.62929 0.17 0.04 0.04
v -0.075002 0.112248 1.7 0.17 0.04 0.04
v -0.095459 0.095459 1.7 0.17 0.04 0.04
v -0.112248 0.075002 1.7 0.17 0.04 0.04
v -0.069136 0.046195 1.66173 0.17 0.04 0.04
v -0.073394 0.049041 1.68049 0.17 0.04 0.04
v -0.074832 0.050001 1.7 0.17 0.04 0.04
v -0.081551 0.03378 1.68049 0.17 0.04 0.04
v -0.083149 0.034441 1.7 0.17 0.04 0.04
v -0.069136 0.028637 1.64444 0.17 0.04 0.04
v -0.07682 0.03182 1.66173 0.17 0.04 0.04
v -0.073394 0.014599 1.64444 0.17 0.04 0.04
v -0.074832 0 1.64444 0.17 0.04 0.04
v -0.081551 0.016222 1.66173 0.17 0.04 0.04
v -0.086575 0.017221 1.68049 0.17 0.04 0.04
v -0.088271 0.017558 1.7 0.17 0.04 0.04
v -0.088271 0 1.68049 0.17 0.04 0.04
v -0.09 0 1.7 0.17 0.04 0.04
v -0.124724 0.051662 1.7 0.17 0.04 0.04
v -0.132406 0.026337 1.7 0.17 0.04 0.04
v 0 -0.135 0.9 0.17 0.04 0.04
v -0.026337 -0.132406 0.9 0.17 0.04 0.04
v -0.051662 -0.124724 0.9 0.17 0.04 0.04
v -0.135 0 0.9 0.17 0.04 0.04
v -0.132406 -0.026337 0.9 0.17 0.04 0.04
v -0.124724 -0.051662 0.9 0.17 0.04 0.04
v -0.095459 -0.095459 0.9 0.17 0.04 0.04
v -0.075002 -0.112248 0.9 0.17 0.04 0.04
v -0.112248 -0.075002 0.9 0.17 0.04 0.04
v 0 0 1.6 0.17 0.04 0.04
v -0.006719 -0.016222 1.60192 0.17 0.04 0.04
v -0.016222 -0.006719 1.60192 0.17 0.04 0.04
v -0.012415 -0.012415 1.60192 0.17 0.04 0.04
v -0.009755 -0.014599 1.60192 0.17 0.04 0.04
v -0.014599 -0.009755 1.60192 0.17 0.04 0.04
v -0 -0.017558 1.60192 0.17 0.04 0.04
v -0.003425 -0.017221 1.60192 0.17 0.04 0.04
v -0.01318 -0.03182 1.60761 0.17 0.04 0.04
v -0.017221 -0.003425 1.60192 0.17 0.04 0.04
v -0.03182 -0.01318 1.60761 0.17 0.04 0.04
v -0.024354 -0.024354 1.60761 0.17 0.04 0.04
v -0.019135 -0.028637 1.60761 0.17 0.04 0.04
v -0.028637 -0.019135 1.60761 0.17 0.04 0.04
v -0 -0.034441 1.60761 0.17 0.04 0.04
v -0.006719 -0.03378 1.60761 0.17 0.04 0.04
v -0 -0.050001 1.61685 0.17 0.04 0.04
v -0.009755 -0.049041 1.61685 0.17 0.04 0.04
v -0 -0.06364 1.62929 0.17 0.04 0.04
v -0.012415 -0.062417 1.62929 0.17 0.04 0.04
v -0.019135 -0.046195 1.61685 0.17 0.04 0.04
v -0.027779 -0.041575 1.61685 0.17 0.04 0.04
v -0.024354 -0.058795 1.62929 0.17 0.04 0.04
v -0.03378 -0.006719 1.60761 0.17 0.04 0.04
v -0.049041 -0.009755 1.61685 0.17 0.04 0.04
v -0.041575 -0.027779 1.61685 0.17 0.04 0.04
v -0.046195 -0.019135 1.61685 0.17 0.04 0.04
v -0.06364 -0 1.62929 0.17 0.04 0.04
v -0.062417 -0.012415 1.62929 0.17 0.04 0.04
v -0.058795 -0.024354 1.62929 0.17 0.04 0.04
v -0.035356 -0.035356 1.61685 0.17 0.04 0.04
v -0.045 -0.045 1.62929 0.17 0.04 0.04
v -0.035356 -0.052914 1.62929 0.17 0.04 0.04
v -0.041575 -0.062221 1.64444 0.17 0.04 0.04
v -0.052914 -0.035356 1.62929 0.17 0.04 0.04
v -0.062221 -0.041575 1.64444 0.17 0.04 0.04
v -0.052914 -0.052914 1.64444 0.17 0.04 0.04
v -0.058795 -0.058795 1.66173 0.17 0.04 0.04
v -0.062417 -0.062417 1.68049 0.17 0.04 0.04
v -0.06364 -0.06364 1.7 0.17 0.04 0.04
v 0 -0.074832 1.64444 0.17 0.04 0.04
v -0.014599 -0.073394 1.64444 0.17 0.04 0.04
v -0 -0.083149 1.66173 0.17 0.04 0.04
v -0.016222 -0.081551 1.66173 0.17 0.04 0.04
v 0 -0.088271 1.68049 0.17 0.04 0.04
v 0 -0.09 1.7 0.17 0.04 0.04
v -0.028637 -0.069136 1.64444 0.17 0.04 0.04
v -0.03182 -0.07682 1.66173 0.17 0.04 0.04
v -0.017221 -0.086575 1.68049 0.17 0.04 0.04
v -0.017558 -0.088271 1.7 0.17 0.04 0.04
v 0 -0.135 1.7 0.17 0.04 0.04
v -0.026337 -0.132406 1.7 0.17 0.04 0.04
v -0.03378 -0.081551 1.68049 0.17 0.04 0.04
v -0.034441 -0.083149 1.7 0.17 0.04 0.04
v -0.046195 -0.069136 1.66173 0.17 0.04 0.04
v -0.049041 -0.073394 1.68049 0.17 0.04 0.04
v -0.050001 -0.074832 1.7 0.17 0.04 0.04
v -0.051662 -0.124724 1.7 0.17 0.04 0.04
v -0.073394 -0.014599 1.64444 0.17 0.04 0.04
v -0.083149 -0 1.66173 0.17 0.04 0.04
v -0.081551 -0.016222 1.66173 0.17 0.04 0.04
v -0.069136 -0.028637 1.64444 0.17 0.04 0.04
v -0.07682 -0.03182 1.66173 0.17 0.04 0.04
v -0.086575 -0.017221 1.68049 0.17 0.04 0.04
v -0.088271 -0.017558 1.7 0.17 0.04 0.04
v -0.069136 -0.046195 1.66173 0.17 0.04 0.04
v -0.073394 -0.049041 1.68049 0.17 0.04 0.04
v -0.074832 -0.050001 1.7 0.17 0.04 0.04
v -0.081551 -0.03378 1.68049 0.17 0.04 0.04
v -0.083149 -0.034441 1.7 0.17 0.04 0.04
v -0.135 0 1.7 0.17 0.04 0.04
v -0.132406 -0.026337 1.7 0.17 0.04 0.04
v -0.124724 -0.051662 1.7 0.17 0.04 0.04
v -0.095459 -0.095459 1.7 0.17 0.04 0.04
v -0.075002 -0.112248 1.7 0.17 0.04 0.04
v -0.112248 -0.075002 1.7 0.17 0.04 0.04
f 297 238 237
f 297 237 296
f 303 239 238
f 303 238 297
f 320 244 239
f 320 239 303
f 319 243 244
f 319 244 320
f 321 245 243
f 321 243 319
f 318 242 245
f 318 245 321
f 317 241 242
f 317 242 318
f 316 240 241
f 316 241 317
f 236 165 240
f 236 240 316
f 235 164 165
f 235 165 236
f 220 163 164
f 220 164 235
f 219 162 163
f 219 163 220
f 218 161 162
f 218 162 219
f 175 160 161
f 175 161 218
f 167 159 160
f 167 160 175
f 166 158 159
f 166 159 167
f 30 7 158
f 30 158 166
f 24 6 7
f 24 7 30
f 9 2 6
f 9 6 24
f 10 3 2
f 10 2 9
f 8 1 3
f 8 3 10
f 11 4 1
f 11 1 8
f 12 5 4
f 12 4 11
f 86 78 5
f 86 5 12
f 87 79 78
f 87 78 86
f 88 80 79
f 88 79 87
f 104 81 80
f 104 80 88
f 105 82 81
f 105 81 104
f 106 83 82
f 106 82 105
f 150 84 83
f 150 83 106
f 297 296 157
f 157 150 106
f 106 105 104
f 104 88 87
f 87 86 12
f 12 11 8
f 8 10 9
f 9 24 30
f 30 166 167
f 167 175 218
f 218 219 220
f 235 315 310
f 235 310 234
f 218 220 235
f 30 167 218
f 8 9 30
f 87 12 8
f 106 104 87
f 297 157 106
f 313 303 297
f 285 313 297
f 297 106 87
f 87 8 30
f 30 218 235
f 235 234 232
f 235 232 225
f 302 285 297
f 299 302 297
f 235 225 223
f 235 223 207
f 295 299 297
f 291 295 297
f 235 207 180
f 235 180 177
f 154 291 297
f 149 154 297
f 30 235 177
f 30 177 172
f 147 149 297
f 147 297 87
f 30 172 35
f 30 35 32
f 119 147 87
f 103 119 87
f 30 32 29
f 30 29 27
f 100 103 87
f 92 100 87
f 30 27 41
f 30 41 17
f 89 92 87
f 19 89 87
f 87 30 17
f 14 19 87
f 87 17 14
f 320 303 313
f 315 235 236
f 320 313 315
f 321 319 320
f 317 318 321
f 236 316 317
f 320 315 236
f 317 321 320
f 236 317 320
f 157 85 84
f 157 84 150
f 296 237 85
f 296 85 157
f 242 241 240
f 240 165 164
f 164 163 162
f 162 161 160
f 160 159 158
f 158 7 6
f 6 2 3
f 3 1 4
f 4 5 78
f 78 79 80
f 80 81 82
f 82 83 84
f 84 85 237
f 237 238 239
f 239 244 243
f 243 245 242
f 242 240 164
f 164 162 160
f 160 158 6
f 6 3 4
f 4 78 80
f 80 82 84
f 84 237 239
f 239 243 242
f 242 164 160
f 160 6 4
f 4 80 84
f 84 239 242
f 242 160 4
f 4 84 242
f 262 263 265
f 262 265 264
f 260 261 263
f 260 263 262
f 252 253 261
f 252 261 260
f 246 253 252
f 295 291 290
f 295 290 294
f 288 289 294
f 288 294 290
f 289 288 286
f 289 286 287
f 264 265 287
f 264 287 286
f 265 268 292
f 265 292 287
f 268 265 263
f 268 263 266
f 261 254 266
f 261 266 263
f 253 247 254
f 253 254 261
f 246 247 253
f 294 298 299
f 294 299 295
f 298 294 289
f 298 289 293
f 287 292 293
f 287 293 289
f 246 250 247
f 302 299 298
f 302 298 301
f 301 298 293
f 301 293 300
f 292 279 300
f 292 300 293
f 279 292 268
f 279 268 278
f 266 267 278
f 266 278 268
f 254 258 267
f 254 267 266
f 247 250 258
f 247 258 254
f 267 276 277
f 267 277 278
f 258 257 276
f 258 276 267
f 250 249 257
f 250 257 258
f 246 249 250
f 301 284 285
f 301 285 302
f 300 283 284
f 300 284 301
f 283 300 279
f 283 279 282
f 278 277 282
f 278 282 279
f 313 285 284
f 313 284 312
f 283 311 312
f 283 312 284
f 282 281 311
f 282 311 283
f 277 280 281
f 277 281 282
f 276 271 280
f 276 280 277
f 257 259 271
f 257 271 276
f 249 251 259
f 249 259 257
f 246 251 249
f 271 272 275
f 271 275 280
f 259 256 272
f 259 272 271
f 251 248 256
f 251 256 259
f 246 248 251
f 312 314 315
f 312 315 313
f 311 308 314
f 311 314 312
f 281 307 308
f 281 308 311
f 280 275 307
f 280 307 281
f 308 306 309
f 308 309 314
f 307 304 306
f 307 306 308
f 275 274 304
f 275 304 307
f 272 270 274
f 272 274 275
f 256 269 270
f 256 270 272
f 248 255 269
f 248 269 256
f 246 255 248
f 310 315 314
f 310 314 309
f 269 213 215
f 269 215 270
f 255 198 213
f 255 213 269
f 246 198 255
f 309 233 234
f 309 234 310
f 306 305 233
f 306 233 309
f 304 229 305
f 304 305 306
f 274 273 229
f 274 229 304
f 270 215 273
f 270 273 274
f 305 230 231
f 305 231 233
f 229 228 230
f 229 230 305
f 273 217 228
f 273 228 229
f 215 214 217
f 215 217 273
f 213 212 214
f 213 214 215
f 198 197 212
f 198 212 213
f 246 197 198
f 233 231 232
f 233 232 234
f 212 199 211
f 212 211 214
f 197 193 199
f 197 199 212
f 246 193 197
f 231 224 225
f 231 225 232
f 230 227 224
f 230 224 231
f 228 226 227
f 228 227 230
f 217 216 226
f 217 226 228
f 214 211 216
f 214 216 217
f 226 209 221
f 226 221 227
f 216 208 209
f 216 209 226
f 211 210 208
f 211 208 216
f 199 196 210
f 199 210 211
f 193 192 196
f 193 196 199
f 246 192 193
f 224 222 223
f 224 223 225
f 227 221 222
f 227 222 224
f 195 196 192
f 195 192 191
f 246 191 192
f 222 206 207
f 222 207 223
f 221 205 206
f 221 206 222
f 209 204 205
f 209 205 221
f 208 203 204
f 208 204 209
f 210 202 203
f 210 203 208
f 196 195 202
f 196 202 210
f 203 201 200
f 203 200 204
f 202 186 201
f 202 201 203
f 186 202 195
f 186 195 194
f 191 190 194
f 191 194 195
f 246 190 191
f 206 179 180
f 206 180 207
f 205 178 179
f 205 179 206
f 204 200 178
f 204 178 205
f 246 189 190
f 179 176 177
f 179 177 180
f 178 174 176
f 178 176 179
f 200 173 174
f 200 174 178
f 201 184 173
f 201 173 200
f 184 201 186
f 184 186 185
f 194 188 185
f 194 185 186
f 190 189 188
f 190 188 194
f 184 181 168
f 184 168 173
f 185 183 181
f 185 181 184
f 183 185 188
f 183 188 182
f 189 187 182
f 189 182 188
f 246 187 189
f 176 171 172
f 176 172 177
f 174 170 171
f 174 171 176
f 173 168 170
f 173 170 174
f 72 187 246
f 171 36 35
f 171 35 172
f 36 171 170
f 36 170 169
f 168 38 169
f 168 169 170
f 38 168 181
f 38 181 60
f 183 62 60
f 183 60 181
f 62 183 182
f 62 182 64
f 64 182 187
f 64 187 72
f 62 61 59
f 62 59 60
f 61 62 64
f 61 64 63
f 63 64 72
f 63 72 71
f 71 72 246
f 36 31 32
f 36 32 35
f 31 36 169
f 31 169 39
f 38 37 39
f 38 39 169
f 37 38 60
f 37 60 59
f 29 32 31
f 29 31 28
f 39 34 28
f 39 28 31
f 34 39 37
f 34 37 33
f 33 37 59
f 33 59 56
f 61 58 56
f 61 56 59
f 58 61 63
f 58 63 70
f 70 63 71
f 70 71 77
f 77 71 246
f 47 56 58
f 47 58 57
f 57 58 70
f 57 70 66
f 66 70 77
f 66 77 74
f 74 77 246
f 28 26 27
f 28 27 29
f 34 25 26
f 34 26 28
f 25 34 33
f 25 33 46
f 56 47 46
f 56 46 33
f 42 26 25
f 42 25 43
f 46 40 43
f 46 43 25
f 40 46 47
f 40 47 48
f 48 47 57
f 48 57 49
f 49 57 66
f 49 66 67
f 67 66 74
f 67 74 75
f 75 74 246
f 41 27 26
f 41 26 42
f 53 49 67
f 53 67 65
f 65 67 75
f 65 75 73
f 75 246 73
f 42 16 17
f 42 17 41
f 16 42 43
f 16 43 15
f 15 43 40
f 15 40 44
f 44 40 48
f 44 48 45
f 45 48 49
f 45 49 53
f 21 15 44
f 21 44 20
f 20 44 45
f 20 45 50
f 50 45 53
f 50 53 52
f 52 53 65
f 52 65 68
f 68 65 73
f 68 73 76
f 73 246 76
f 14 17 16
f 14 16 13
f 13 16 15
f 13 15 21
f 55 68 76
f 55 76 69
f 69 76 246
f 13 18 19
f 13 19 14
f 18 13 21
f 18 21 23
f 23 21 20
f 23 20 22
f 22 20 50
f 22 50 51
f 51 50 52
f 51 52 54
f 54 52 68
f 54 68 55
f 95 23 22
f 95 22 93
f 93 22 51
f 93 51 107
f 54 110 107
f 54 107 51
f 110 54 55
f 110 55 112
f 112 55 69
f 112 69 127
f 69 246 127
f 89 19 18
f 89 18 90
f 90 18 23
f 90 23 95
f 113 112 127
f 113 127 128
f 127 246 128
f 92 89 90
f 92 90 91
f 91 90 95
f 91 95 96
f 96 95 93
f 96 93 94
f 94 93 107
f 94 107 108
f 110 111 108
f 110 108 107
f 111 110 112
f 111 112 113
f 97 94 108
f 97 108 109
f 109 108 111
f 109 111 114
f 114 111 113
f 114 113 126
f 126 113 128
f 126 128 132
f 246 132 128
f 100 92 91
f 100 91 99
f 99 91 96
f 99 96 98
f 98 96 94
f 98 94 97
f 246 133 132
f 103 100 99
f 103 99 102
f 102 99 98
f 102 98 101
f 101 98 97
f 101 97 116
f 116 97 109
f 116 109 117
f 117 109 114
f 117 114 115
f 115 114 126
f 115 126 129
f 129 126 132
f 129 132 133
f 118 116 117
f 118 117 122
f 122 117 115
f 122 115 123
f 123 115 129
f 123 129 130
f 133 134 130
f 133 130 129
f 246 134 133
f 119 103 102
f 119 102 120
f 120 102 101
f 120 101 121
f 121 101 116
f 121 116 118
f 246 135 134
f 147 119 120
f 147 120 146
f 146 120 121
f 146 121 145
f 145 121 118
f 145 118 125
f 125 118 122
f 125 122 124
f 124 122 123
f 124 123 139
f 130 131 139
f 130 139 123
f 131 130 134
f 131 134 135
f 139 140 141
f 139 141 124
f 140 139 131
f 140 131 137
f 137 131 135
f 137 135 136
f 246 136 135
f 149 147 146
f 149 146 148
f 148 146 145
f 148 145 152
f 152 145 125
f 152 125 151
f 151 125 124
f 151 124 141
f 153 148 152
f 153 152 156
f 156 152 151
f 156 151 155
f 155 151 141
f 155 141 144
f 144 141 140
f 144 140 142
f 137 143 142
f 137 142 140
f 143 137 136
f 143 136 138
f 246 138 136
f 154 149 148
f 154 148 153
f 143 260 262
f 143 262 142
f 138 252 260
f 138 260 143
f 246 252 138
f 291 154 153
f 291 153 290
f 156 288 290
f 156 290 153
f 288 156 155
f 288 155 286
f 144 264 286
f 144 286 155
f 142 262 264
f 142 264 144
